<?xml version="1.0" encoding="iso-8859-1"?>
<!-- Generator: Adobe Illustrator 19.0.0, SVG Export Plug-In . SVG Version: 6.00 Build 0)  -->
<svg version="1.1" id="Capa_1" xmlns="http://www.w3.org/2000/svg" xmlns:xlink="http://www.w3.org/1999/xlink" x="0px" y="0px"
	 viewBox="0 0 512 512" style="enable-background:new 0 0 512 512;" xml:space="preserve">
<g>
	<g>
		<g>
			<path d="M402.478,256.044l-60.517-21.876l-30.325-59.842c-0.586-1.296-14.803-31.709-47.205-36.688
				c-14.599-2.219-28.736,0.994-39.697,9.114c-9.434,6.976-15.504,16.977-17.119,28.124l-17.066,116.569
				c-3.55,24.494,13.49,47.302,37.975,50.843c2.183,0.311,4.331,0.47,6.461,0.47c5.35,0,10.537-0.967,15.373-2.743l63.221,161.565
				c2.529,6.47,8.715,10.419,15.256,10.419c1.988,0,4.011-0.364,5.973-1.136c8.422-3.293,12.584-12.806,9.283-21.228
				l-68.009-173.802c1.564-3.586,2.684-7.432,3.268-11.485l11.954-81.346c1.313-8.955-4.872-17.288-13.827-18.592
				c-8.946-1.313-17.279,4.872-18.592,13.827l-11.963,81.381c-0.281,1.951-1.035,3.721-2.114,5.23
				c-0.111,0.151-0.231,0.297-0.336,0.452c-2.613,3.319-6.885,5.204-11.261,4.551c-6.603-0.95-11.191-7.109-10.25-13.685
				l17.066-116.569c0.461-3.151,2.529-5.28,4.198-6.514c3.834-2.84,9.372-3.976,15.238-3.053
				c14.714,2.254,22.338,17.856,22.648,18.486l33.555,66.25c1.881,3.727,5.121,6.585,9.043,8.005l66.622,24.086
				c8.52,3.08,17.9-1.322,20.98-9.833S410.988,259.124,402.478,256.044z"/>
			<path d="M268.097,124.849c25.142,0,47.719-14.954,57.499-38.108c3.532-8.342-0.373-17.954-8.706-21.468
				c-8.324-3.55-17.945,0.382-21.468,8.706c-4.65,11.005-15.38,18.122-27.325,18.122c-16.356,0-29.659-13.303-29.659-29.65
				c0-16.365,13.303-29.686,29.65-29.686c11.475,0.009,21.716,6.425,26.713,16.738c3.958,8.138,13.765,11.528,21.894,7.588
				c8.138-3.949,11.528-13.747,7.588-21.894C313.926,13.827,291.872,0.009,268.097,0c-34.416,0-62.416,28.009-62.416,62.443
				C205.681,96.859,233.681,124.849,268.097,124.849z"/>
			<path d="M197.312,334.834c-8.387-3.47-17.945,0.568-21.379,8.919l-59.922,145.625c-3.443,8.36,0.55,17.936,8.919,21.379
				c2.032,0.843,4.153,1.242,6.221,1.242c6.452,0,12.558-3.825,15.158-10.153l59.922-145.634
				C209.674,347.853,205.681,338.277,197.312,334.834z"/>
			<path d="M130.627,283.37l24.139-71.788l39.883-32.765c6.993-5.751,7.996-16.081,2.263-23.065
				c-5.751-6.993-16.063-8.005-23.065-2.263l-43.513,35.756c-2.37,1.952-4.153,4.535-5.13,7.437l-25.639,76.234
				c-2.884,8.582,1.731,17.874,10.304,20.758c1.731,0.586,3.497,0.861,5.227,0.861C121.939,294.534,128.32,290.212,130.627,283.37z"
				/>
		</g>
	</g>
</g>
<g>
</g>
<g>
</g>
<g>
</g>
<g>
</g>
<g>
</g>
<g>
</g>
<g>
</g>
<g>
</g>
<g>
</g>
<g>
</g>
<g>
</g>
<g>
</g>
<g>
</g>
<g>
</g>
<g>
</g>
</svg>
